<svg version="1.1" id="Layer_1" xmlns="http://www.w3.org/2000/svg" xmlns:xlink="http://www.w3.org/1999/xlink" x="0px" y="0px"
	 width="100%" viewBox="0 0 1024 1024" enable-background="new 0 0 1024 1024" xml:space="preserve">
<path fill="#000000" opacity="1.000000" stroke="none" 
	d="
M137.670105,524.999878 
	C137.673523,496.843872 137.644684,469.187775 137.691437,441.531860 
	C137.727249,420.352905 150.013153,404.955109 170.472412,400.165009 
	C173.123550,399.544312 175.765549,399.631805 178.418228,399.630249 
	C218.902634,399.606293 259.387054,399.590790 299.871460,399.609558 
	C323.623993,399.620544 340.908234,416.058563 341.104004,439.795532 
	C341.432404,479.610657 341.414276,519.432556 341.085541,559.247742 
	C340.891968,582.691040 322.491272,600.304993 299.028290,600.334351 
	C259.210358,600.384094 219.392334,600.371338 179.574356,600.344482 
	C155.335861,600.328125 138.080139,583.312134 137.718491,558.986145 
	C137.552582,547.826294 137.677399,536.662170 137.670105,524.999878 
M214.441223,568.915161 
	C211.650742,572.495117 207.604630,574.971252 204.999786,579.144226 
	C227.881226,579.144226 250.292923,579.144226 274.026428,579.144226 
	C258.883575,564.743591 247.448029,549.132507 239.296417,530.003723 
	C232.873917,544.994141 225.120117,557.488098 214.441223,568.915161 
M235.082199,460.530945 
	C236.290939,462.947754 237.499664,465.364532 239.211136,468.786530 
	C247.071869,449.554230 259.152191,434.732025 273.686279,420.638153 
	C250.095566,420.638153 227.772064,420.638153 204.399368,420.638153 
	C216.988190,432.678467 227.416718,445.105194 235.082199,460.530945 
M316.424469,468.257263 
	C304.153809,481.709778 290.006897,492.642548 271.952209,499.951050 
	C291.524689,507.451324 305.703522,520.008362 319.177490,534.829773 
	C319.177490,511.160828 319.177490,488.694763 319.177490,466.228699 
	C318.876099,466.084747 318.574677,465.940826 318.273285,465.796875 
	C317.798065,466.470276 317.322876,467.143677 316.424469,468.257263 
M261.486786,481.703400 
	C275.561127,476.337036 287.710449,467.926208 298.295135,457.399872 
	C305.122345,450.610352 311.513947,443.267975 314.932007,433.974640 
	C316.107605,430.778320 316.793671,427.305542 313.881073,424.681976 
	C310.852020,421.953400 307.355865,422.902954 304.055267,424.405945 
	C302.699799,425.023163 301.417877,425.828552 300.169373,426.649994 
	C285.914612,436.028931 274.312531,447.997620 265.224548,462.432129 
	C261.323151,468.628754 258.091400,475.099396 256.244568,482.188812 
	C258.100037,483.254242 259.438965,482.440125 261.486786,481.703400 
M168.760834,576.606812 
	C171.215302,576.802612 173.339249,575.830566 175.325287,574.588928 
	C196.271240,561.493530 211.862793,543.858582 220.881195,520.681702 
	C221.386703,519.382629 222.400055,518.071777 221.120331,516.378418 
	C206.110718,521.196960 193.129349,529.364075 181.890381,540.277771 
	C174.346985,547.602844 167.441299,555.528015 163.430923,565.456421 
	C161.119415,571.179077 162.358063,573.840881 168.760834,576.606812 
M304.905884,575.614563 
	C308.006226,576.645447 311.137878,577.392578 313.630981,574.451721 
	C316.197327,571.424438 316.002777,568.013123 314.397095,564.636108 
	C313.400818,562.540894 312.265594,560.495911 311.022614,558.536316 
	C302.694031,545.405884 291.863983,534.703186 278.816772,526.346313 
	C272.059570,522.018311 265.047668,517.981995 256.798401,516.226318 
	C260.967865,536.574280 284.107086,565.319092 304.905884,575.614563 
M185.110992,431.400299 
	C181.058609,428.488983 177.175797,425.224304 172.272949,423.839539 
	C169.393341,423.026215 166.321899,422.486694 163.876984,425.090271 
	C161.493073,427.628906 162.147079,430.664917 162.731888,433.596252 
	C162.952759,434.703430 163.587860,435.769531 164.199997,436.750916 
	C177.106583,457.442657 194.627914,472.717194 217.328079,481.879150 
	C218.632324,482.405518 219.954636,483.413452 221.455963,482.337402 
	C219.068558,468.349701 204.635712,447.999268 185.110992,431.400299 
M159.322601,527.123962 
	C159.548370,528.951782 158.772400,530.955627 160.249496,533.060120 
	C173.305801,518.721619 188.111847,507.332428 207.159653,499.903107 
	C188.058456,492.111816 173.120453,480.876373 160.337952,466.567902 
	C159.999893,466.861816 159.661835,467.155731 159.323776,467.449646 
	C159.323776,487.039398 159.323776,506.629120 159.322601,527.123962 
z"/>
<path fill="#000000" opacity="1.000000" stroke="none" 
	d="
M446.474915,527.665039 
	C447.964417,531.895081 449.335876,535.752747 451.159882,540.883240 
	C452.610352,536.713135 453.680054,533.816406 454.629578,530.880737 
	C466.047089,495.582550 477.499603,460.295502 488.774536,424.951782 
	C489.981567,421.168121 491.618652,419.496338 495.770630,419.853821 
	C502.869568,420.464996 510.011963,420.571503 517.043579,420.885803 
	C518.075562,423.522949 516.675537,425.445679 516.007812,427.386566 
	C500.039368,473.802032 483.979797,520.186096 468.029083,566.607605 
	C466.894501,569.909485 465.279846,571.491943 461.591187,571.366760 
	C454.433380,571.123962 447.254944,571.114197 440.098267,571.373535 
	C436.486115,571.504456 434.776978,570.178833 433.613831,566.807007 
	C425.310699,542.737488 416.860901,518.718323 408.415527,494.698090 
	C400.411896,471.934326 392.353180,449.189972 384.332428,426.432220 
	C383.791351,424.897064 383.365906,423.321167 382.688477,421.120239 
	C391.927032,420.299408 400.663666,420.568176 409.379913,420.913391 
	C411.847321,421.011108 411.939392,423.676575 412.541382,425.493256 
	C421.488159,452.491486 430.393158,479.503540 439.332153,506.504303 
	C441.630951,513.447937 444.013031,520.363892 446.474915,527.665039 
z"/>
<path fill="#000000" opacity="1.000000" stroke="none" 
	d="
M595.914673,540.695435 
	C599.195923,540.695190 601.995056,540.695190 604.533081,540.695190 
	C606.035156,543.331238 604.624084,545.072021 603.911255,546.819519 
	C597.975769,561.370361 586.377258,568.675781 571.499634,570.954895 
	C560.087708,572.703064 548.585022,572.386658 537.571716,568.222229 
	C517.781128,560.738953 508.130280,545.223816 506.020569,525.211731 
	C504.174866,507.704254 507.606873,491.074188 520.120605,477.410034 
	C538.464905,457.379425 573.898682,455.794952 592.703613,474.405792 
	C601.108887,482.724304 604.791321,493.354462 606.269531,504.809113 
	C606.904419,509.729309 607.026855,514.669128 606.519409,519.697388 
	C606.137817,523.478699 604.767456,524.465576 601.285095,524.390198 
	C593.462646,524.220703 585.632751,524.257263 577.807922,524.359314 
	C564.161194,524.537292 550.516357,524.868286 536.869629,525.041504 
	C533.622681,525.082764 531.771667,525.770813 532.639160,529.674194 
	C535.382019,542.015808 543.333191,549.950134 555.851379,551.954163 
	C563.671753,553.206116 571.079285,551.339294 576.275391,545.294006 
	C579.536011,541.500488 582.859436,540.279114 587.443115,540.658508 
	C590.089172,540.877502 592.768311,540.696594 595.914673,540.695435 
M579.482361,505.415009 
	C582.154480,498.194122 578.205017,492.713257 573.815796,488.207184 
	C566.924011,481.131927 558.101807,480.072266 548.909485,483.268738 
	C539.686829,486.475800 535.162354,493.851074 532.676758,502.731903 
	C531.815186,505.809998 534.211731,505.898682 536.284790,505.892120 
	C550.424072,505.847321 564.563110,505.769165 579.482361,505.415009 
z"/>
<path fill="#000000" opacity="1.000000" stroke="none" 
	d="
M689.059570,571.256348 
	C681.580811,572.512207 677.284241,569.721924 673.899414,563.361389 
	C668.684509,553.562073 662.452454,544.304016 656.199341,534.076050 
	C652.663147,539.411682 649.574646,544.063721 646.494568,548.721375 
	C642.362244,554.970337 638.145325,561.166138 634.151184,567.502380 
	C632.470764,570.168213 630.494995,571.419495 627.247192,571.336792 
	C619.655090,571.143494 612.054688,571.275024 604.866089,571.275024 
	C603.809326,569.138000 604.754272,568.306824 605.413025,567.369385 
	C616.805969,551.156616 628.097351,534.870850 639.661804,518.781311 
	C641.971741,515.567444 642.183716,513.385620 639.840393,510.055603 
	C629.777588,495.755707 620.016235,481.243500 610.175415,466.787994 
	C609.463257,465.741913 608.262512,464.879333 608.559082,462.780609 
	C617.409668,462.780609 626.321960,462.724365 635.232727,462.815582 
	C637.841675,462.842255 638.599976,465.306580 639.742920,467.054810 
	C645.369629,475.661591 650.920837,484.317749 656.907715,493.589905 
	C662.913147,484.854675 668.755127,476.818451 674.062988,468.443665 
	C676.752991,464.199341 679.735962,462.166656 684.932129,462.547119 
	C691.378296,463.019135 697.885437,462.660217 704.380920,462.660217 
	C705.205200,464.815430 703.494568,465.851013 702.651794,467.082916 
	C692.967285,481.239502 683.281616,495.396881 673.406616,509.420471 
	C671.334656,512.362915 671.492737,514.503662 673.435791,517.424377 
	C684.136963,533.509399 694.647156,549.721619 705.199341,565.905457 
	C706.078735,567.254211 707.456116,568.419800 707.056335,571.256897 
	C701.309814,571.256897 695.428894,571.256897 689.059570,571.256348 
z"/>
<path fill="#000000" opacity="1.000000" stroke="none" 
	d="
M727.480103,436.467407 
	C734.620789,435.163391 741.455627,435.949677 748.267700,435.693573 
	C750.943054,435.592957 751.619629,436.828552 751.535461,439.368195 
	C751.325623,445.693848 751.507874,452.032349 751.309265,458.358673 
	C751.206116,461.642639 752.504578,462.780334 755.716431,462.702789 
	C761.544739,462.562042 767.383240,462.841400 773.211121,462.693298 
	C776.490356,462.609955 777.633850,463.832611 777.448120,467.089844 
	C777.201904,471.409454 777.226013,475.756592 777.381104,480.083038 
	C777.499207,483.376923 776.082397,484.479218 772.925232,484.393585 
	C767.430054,484.244568 761.920410,484.529205 756.431274,484.293976 
	C752.445801,484.123199 751.250549,485.732391 751.286743,489.579895 
	C751.428894,504.742828 751.259033,519.908386 751.322083,535.072510 
	C751.365906,545.618469 758.294983,551.243103 768.788147,549.404663 
	C771.389038,548.948914 773.967651,548.366028 777.177185,547.715881 
	C778.712402,554.642517 778.166626,561.360229 777.747681,568.054993 
	C777.683228,569.084961 776.648926,569.730164 775.674255,570.030884 
	C764.267029,573.550598 745.594666,572.949585 735.445801,563.492310 
	C728.325867,556.857544 725.903198,548.416687 725.799194,539.161865 
	C725.615662,522.832825 725.552673,506.498016 725.803589,490.171204 
	C725.876099,485.454559 724.295532,484.229614 719.787598,484.296478 
	C707.771362,484.474854 707.736023,484.287537 707.831116,471.955383 
	C707.911560,461.525757 707.036926,462.794678 716.858948,462.744781 
	C728.001038,462.688171 726.473816,463.738159 726.688782,452.749146 
	C726.792725,447.434357 726.136047,442.094391 727.480103,436.467407 
z"/>
<path fill="#000000" opacity="1.000000" stroke="none" 
	d="
M835.653564,485.000061 
	C835.659546,478.672729 835.770142,472.842834 835.631287,467.018890 
	C835.554321,463.791656 836.844727,462.553589 840.043457,462.639252 
	C845.367432,462.781830 850.701599,462.784821 856.024902,462.626404 
	C859.273132,462.529724 860.542908,463.847107 860.363892,467.039215 
	C860.208374,469.812408 860.331482,472.601257 860.331482,476.991760 
	C866.347351,468.094757 873.538025,463.512482 882.637573,462.063629 
	C883.129700,461.985199 883.613586,461.849915 884.107239,461.787201 
	C893.601379,460.580353 894.965576,461.645081 895.474670,471.127258 
	C895.715149,475.606781 895.697571,480.102020 895.707214,484.590271 
	C895.708801,485.345825 895.252686,486.102325 894.935059,487.084137 
	C887.776123,486.002960 880.889404,485.651520 874.324829,488.935089 
	C866.172119,493.013092 861.364929,499.441132 861.267151,508.599762 
	C861.070068,527.076904 861.088318,545.560730 861.384155,564.035889 
	C861.465332,569.112732 859.914856,570.933777 854.858826,570.462036 
	C850.732544,570.077026 846.541321,570.399353 842.378845,570.389099 
	C835.670776,570.372559 835.654907,570.365967 835.653381,563.421265 
	C835.647461,537.447510 835.652832,511.473785 835.653564,485.000061 
z"/>
<path fill="#000000" opacity="1.000000" stroke="none" 
	d="
M818.178284,518.000000 
	C818.164673,533.647217 818.178101,548.794617 818.125305,563.941650 
	C818.100769,570.978516 818.047424,570.873535 811.204834,570.545654 
	C806.387390,570.314880 801.552307,570.321472 796.728271,570.406006 
	C793.718140,570.458679 792.641052,569.190125 792.646667,566.231995 
	C792.709106,533.107788 792.726135,499.983337 792.659790,466.859161 
	C792.653076,463.507111 794.098999,462.532349 797.179626,462.616821 
	C802.336060,462.758270 807.502930,462.797699 812.657349,462.631744 
	C815.943298,462.525909 817.314209,463.554138 817.561462,467.087433 
	C818.736877,483.886932 817.933655,500.697876 818.178284,518.000000 
z"/>
<path fill="#000000" opacity="1.000000" stroke="none" 
	d="
M792.790283,443.035248 
	C788.257202,435.230316 788.999207,428.563873 794.670288,423.839661 
	C800.356384,419.102936 809.905212,418.948303 815.544434,423.501465 
	C820.243835,427.295715 821.891968,434.505798 819.397644,440.358307 
	C817.003723,445.975128 810.059387,449.907898 803.840027,448.910492 
	C799.683472,448.243896 795.718811,446.954254 792.790283,443.035248 
z"/>
</svg>